<?xml version="1.0" encoding="UTF-8"?>
<svg id="Layer_2" data-name="Layer 2" xmlns="http://www.w3.org/2000/svg" viewBox="0 0 600 600">
  <defs>
    <style>
      .cls-1, .cls-2 {
        stroke-width: 0px;
      }

      .cls-1 {
        fill: #3066be;
      }

      .cls-2 {
        fill: #96b6e9;
      }

      @media (prefers-color-scheme: dark) {
        .cls-1 {
          fill: #696c9a;
        }

        .cls-2 {
          fill: #c0c2dd;
        }
      }
    </style>
  </defs>
  <circle class="cls-2" cx="300" cy="300" r="268.83"/>
  <path class="cls-1" d="m490.27,449.65v6c0,6.08-4.92,11-11,11h0c-6.08,0-11,4.92-11,11v47c0,6.08-4.92,11-11,11H142.27c-6.08,0-11-4.92-11-11v-188c0-6.08,4.92-11,11-11h315c6.08,0,11,4.92,11,11v50c0,6.08-4.92,11-11,11h-244c-6.08,0-11,4.92-11,11v47c0,6.08,4.92,11,11,11h175c6.08,0,11-4.92,11-11v-6c0-6.08,4.92-11,11-11h69c6.08,0,11,4.92,11,11Z"/>
  <path class="cls-1" d="m491.27,75.61v49.8c0,6.22-5.04,11.25-11.25,11.25h0c-6.22,0-11.25,5.04-11.25,11.25v115.19c0,6.22-5.04,11.25-11.25,11.25H142.52c-6.22,0-11.25-5.04-11.25-11.25v-74.32c0-6.22,5.04-11.25,11.25-11.25h46.92c6.22,0,11.25,5.04,11.25,11.25v5.47c0,6.22,5.04,11.25,11.25,11.25h173.61c6.22,0,11.25-5.04,11.25-11.25v-46.34c0-6.22-5.04-11.25-11.25-11.25h-243.04c-6.22,0-11.25-5.04-11.25-11.25v-49.8c0-6.22,5.04-11.25,11.25-11.25h337.49c6.22,0,11.25,5.04,11.25,11.25Z"/>
</svg>
